# xmcd
# 
# Track frame offsets:
#     150
#     19887
#     46802
#     73299
#     97535
#     118511
#     136518
#     156208
#     177460
#     191628
#     206042
#     220141
#     268870
# 
# Disc length: 3888
# 
# Revision: 1
# Processed by: cddbd v1.5.2PL0 Copyright (c) Steve Scherf et al.
# Submitted via: fre:ac v1.0.17
# 
DISCID=b80f2e0d
DTITLE=Paul Personne - Coup d'blues
DYEAR=2003
DGENRE=Blues
TTITLE0=Qu'est-ce qui a changé
TTITLE1=Vue hier soir
TTITLE2=Zic
TTITLE3=Les coques fragiles
TTITLE4=Attente
TTITLE5=Sam'di soir sacré
TTITLE6=D'main j'arrête
TTITLE7=Coup d'blues
TTITLE8=Le diable en hiver
TTITLE9=Pas b'soin
TTITLE10=C'est la vie qui m'a fait comme ça!
TTITLE11=Big blues
TTITLE12=DATA
EXTD=
EXTT0=
EXTT1=
EXTT2=
EXTT3=
EXTT4=
EXTT5=
EXTT6=
EXTT7=
EXTT8=
EXTT9=
EXTT10=
EXTT11=
EXTT12=
PLAYORDER=
